<svg width="166" height="142" viewBox="0 0 166 142" fill="none" xmlns="http://www.w3.org/2000/svg">
<path d="M119.05 70.7571C121.77 72.024 124.899 73.6077 123.947 82.4311C121.09 90.1686 115.649 96.7748 101.909 96.2771C90.8902 93.6074 78.919 90.4853 79.8712 68.5852C80.8235 57.2731 92.6586 41.5719 112.792 41.4362C141.904 41.8434 156.187 67.4992 154.963 87.3179C153.467 115.553 130.839 130.213 99.7325 132.928C83.0454 132.928 63.683 123.833 54.8406 110.123C43.8217 95.8698 39.5593 66.5037 48.855 47.1375C58.695 26.4138 77.2607 13.3706 99.1884 12.9298C119.548 12.5226 132.925 20.1695 140.543 24.8753L158.5 7.50001" stroke="#568D0F" stroke-width="15" stroke-linecap="round" stroke-linejoin="round"/>
<path d="M52.664 40.3502C41.893 57.1005 34.6848 78.9109 27.3613 92.2047C22.1013 103.607 14.9367 110.123 7.50006 118.811C37.0304 135.898 82.539 137.277 112.112 131.163" stroke="#568D0F" stroke-width="15" stroke-linecap="round" stroke-linejoin="round"/>
</svg>
